<svg width="99" height="62" viewBox="0 0 99 62" fill="none" xmlns="http://www.w3.org/2000/svg">
<path d="M13.4575 47.0719C12.7505 47.4461 12.0592 47.7306 11.3838 47.9252C10.7084 48.1198 10.087 48.1772 9.51972 48.0973C9.12462 48.0349 8.76321 47.8822 8.4355 47.6393C8.12192 47.3889 7.8753 47.094 7.69565 46.7547C7.47109 46.3304 7.38169 45.8709 7.42747 45.3759C7.47324 44.881 7.72405 44.4314 8.1799 44.0272C8.24312 43.9756 8.30301 43.9349 8.35957 43.9049C8.42279 43.8534 8.48268 43.8126 8.53925 43.7827C8.82207 43.633 9.10322 43.5656 9.3827 43.5806C9.67633 43.5881 9.91048 43.6542 10.0851 43.779C10.051 43.8514 10.0144 43.9703 9.97533 44.1359C9.92875 44.2872 9.91002 44.4058 9.91917 44.4914C9.89419 44.9573 9.97527 45.3669 10.1624 45.7204C10.4169 46.2012 10.8103 46.4999 11.3427 46.6163C11.8817 46.7112 12.4552 46.5977 13.0633 46.2758C13.6148 45.9839 14.0598 45.5763 14.3984 45.0531C14.7436 44.5083 14.9412 43.924 14.9911 43.3001C15.0552 42.6688 14.9263 42.0491 14.6044 41.4411C14.3649 40.9885 14.0043 40.5639 13.5227 40.1671C13.1069 39.826 12.6465 39.5719 12.1416 39.4047C11.6508 39.23 11.1854 39.069 10.7454 38.9217C10.1465 38.7138 9.56928 38.5124 9.01365 38.3178C8.46467 38.1015 7.95729 37.827 7.4915 37.4942C7.03236 37.1398 6.64934 36.6728 6.34244 36.093C6.0505 35.5415 5.87918 34.9443 5.82847 34.3013C5.79191 33.6508 5.8955 33.0257 6.13924 32.426C6.40961 31.7398 6.81806 31.1434 7.36458 30.6368C7.9111 30.1303 8.53081 29.6936 9.22372 29.3269C10.0863 28.8702 10.825 28.6241 11.4397 28.5883C12.061 28.531 12.5676 28.6158 12.9594 28.8429C13.3653 29.0626 13.6693 29.3633 13.8714 29.7451C14.066 30.1127 14.1683 30.5112 14.1783 30.9404C14.2024 31.3621 14.1366 31.768 13.9811 32.1581C13.818 32.5341 13.5818 32.8402 13.2723 33.0764C13.2232 33.1205 13.1704 33.1575 13.1139 33.1874C13.0573 33.2174 12.9937 33.2511 12.9229 33.2885C12.6118 33.4532 12.2987 33.5284 11.9834 33.5143C11.6823 33.4926 11.4419 33.3121 11.2623 32.9727C11.2398 32.9303 11.2136 32.8808 11.1837 32.8243C11.1679 32.7602 11.1521 32.6962 11.1363 32.6321C11.3908 32.4974 11.6038 32.267 11.7751 31.9409C11.9465 31.6149 12.0147 31.3162 11.9798 31.0451C11.9532 30.8238 11.8987 30.6354 11.8164 30.4799C11.6143 30.0981 11.2803 29.8947 10.8145 29.8697C10.3554 29.8231 9.89245 29.9233 9.4258 30.1703C8.8743 30.4622 8.443 30.8444 8.13188 31.3169C7.82742 31.7677 7.65604 32.2476 7.61775 32.7567C7.57198 33.2516 7.66512 33.7183 7.89717 34.1566C8.12922 34.595 8.48812 34.9481 8.97388 35.216C9.3723 35.4215 9.83477 35.6111 10.3613 35.785C10.8803 35.9447 11.4027 36.0937 11.9284 36.2318C12.4466 36.3557 12.9041 36.4847 13.3008 36.6186C14.18 36.8774 14.9041 37.2363 15.473 37.6955C16.0345 38.1405 16.4649 38.6459 16.7643 39.2115C17.1087 39.862 17.2787 40.5595 17.2745 41.3039C17.277 42.0268 17.1256 42.7496 16.8203 43.4724C16.5149 44.1952 16.0761 44.8711 15.5038 45.4999C14.9315 46.1287 14.2494 46.6527 13.4575 47.0719ZM25.9362 40.0861C25.4554 40.3406 25.0483 40.3751 24.7147 40.1896C24.3878 39.9825 24.1233 39.688 23.9212 39.3062C23.6742 38.8396 23.4705 38.2323 23.31 37.4845C23.142 36.7226 23.0023 35.9457 22.8908 35.1538C22.7861 34.3403 22.6942 33.6195 22.6152 32.9915C22.6044 32.8343 22.5616 32.685 22.4867 32.5436C22.4044 32.388 22.295 32.3011 22.1586 32.2828C22.0222 32.2645 21.8762 32.2965 21.7206 32.3789C21.4944 32.4986 21.2773 32.7041 21.0693 32.9952C20.7507 33.4535 20.5244 34.0349 20.3905 34.7394C20.2565 35.444 20.2116 36.1285 20.2556 36.7932C20.3088 37.5434 20.3903 38.2788 20.5001 38.9991C20.6098 39.7194 20.7021 40.3042 20.777 40.7534C20.8194 41.0387 20.8726 41.3273 20.9366 41.6193C21.0007 41.9113 21.0609 42.1962 21.1175 42.474L19.06 43.5631C19.06 43.5631 19.0159 43.3602 18.9278 42.9542C18.8255 42.5558 18.7515 42.1424 18.7057 41.714C18.6168 40.9646 18.5278 40.2151 18.4388 39.4656C18.364 38.7087 18.2913 38.0412 18.2206 37.4631C18.2023 37.2917 18.1487 36.9852 18.0597 36.5435C17.9774 36.0802 17.8734 35.6102 17.7478 35.1336C17.6364 34.6495 17.5096 34.2731 17.3673 34.0044C17.285 33.8488 17.2076 33.754 17.1353 33.7199C17.2625 33.6525 17.404 33.5777 17.5595 33.4953C17.7217 33.3914 17.8735 33.302 18.0149 33.2271C18.2129 33.1223 18.4005 33.0321 18.5777 32.9564C18.769 32.8732 18.9079 32.8449 18.9944 32.8716C19.2314 32.909 19.4136 33.0479 19.5409 33.2883C19.6307 33.458 19.6852 33.6464 19.7043 33.8535C19.7375 34.0532 19.77 34.217 19.8016 34.3451C19.9022 34.0565 20.0137 33.7712 20.136 33.4892C20.2583 33.2073 20.4675 32.8159 20.7637 32.3152C20.9359 32.0249 21.1867 31.7292 21.5161 31.4281C21.8455 31.127 22.1657 30.8941 22.4768 30.7294C23.2829 30.3028 23.8842 30.4642 24.281 31.2136C24.3483 31.3409 24.4091 31.4898 24.4631 31.6603C24.5313 31.8234 24.5787 32.0155 24.6053 32.2368C24.6544 32.5005 24.7059 32.8714 24.76 33.3497C24.814 33.828 24.876 34.3383 24.9458 34.8807C25.0223 35.4014 25.1088 35.8896 25.2053 36.3455C25.3017 36.8013 25.4136 37.1494 25.5408 37.3898C25.7205 37.7292 25.9376 37.8315 26.1921 37.6968C26.4184 37.577 26.6264 37.2859 26.816 36.8234C26.999 36.3826 27.1284 35.943 27.2041 35.5046C27.3065 34.9798 27.3693 34.4487 27.3926 33.9113C27.4226 33.3524 27.4359 32.8475 27.4326 32.3966C27.4434 32.2461 27.463 32.1633 27.4913 32.1483C27.5761 32.1034 27.6822 32.2012 27.8094 32.4416C27.8693 32.5547 27.9192 32.7003 27.9591 32.8783C28.0057 33.0346 28.0273 33.1952 28.024 33.3599C28.0057 33.8041 27.9707 34.3023 27.9191 34.8546C27.8675 35.4069 27.8013 35.9488 27.7206 36.4804C27.6649 36.8538 27.5605 37.2893 27.4074 37.7867C27.2543 38.2841 27.0576 38.7503 26.8172 39.1853C26.5693 39.6062 26.2756 39.9065 25.9362 40.0861ZM34.2503 35.142C33.7794 35.8257 33.1834 36.3585 32.4622 36.7402C31.8542 37.0621 31.2099 37.213 30.5295 37.193C29.8491 37.173 29.2448 36.8865 28.7167 36.3333C28.4746 36.0812 28.2675 35.7926 28.0954 35.4673C27.8109 34.93 27.6109 34.3298 27.4953 33.6669C27.3864 32.9823 27.3602 32.3173 27.4168 31.6718C27.5009 30.6678 27.7796 29.7237 28.2529 28.8396C28.7262 27.9554 29.4083 27.2775 30.2992 26.8059C30.9639 26.4541 31.5698 26.3506 32.1171 26.4953C32.6645 26.6401 33.0579 26.9387 33.2974 27.3912C33.5819 27.9286 33.6488 28.4996 33.4982 29.1043C33.3543 29.6874 33.0486 30.2385 32.5811 30.7575C32.3507 31.0062 32.0878 31.2449 31.7925 31.4736C31.5038 31.6807 31.2181 31.8591 30.9353 32.0089C30.3555 32.3158 29.8689 32.4738 29.4755 32.4829C29.5736 33.318 29.7761 34.0255 30.083 34.6053C30.3599 35.1285 30.7085 35.4962 31.1285 35.7083C31.5411 35.9063 32.009 35.8668 32.5322 35.5898C32.9705 35.3578 33.3382 35.0093 33.6352 34.5443C33.9463 34.0719 34.1921 33.5616 34.3727 33.0134C34.5673 32.4578 34.7059 31.95 34.7882 31.49C34.8589 31.1448 34.9089 30.8287 34.938 30.5418C34.9671 30.2548 34.9883 29.9358 35.0017 29.5848C35.0075 29.2196 35.008 28.7759 35.003 28.2535C35.0072 28.1246 35.0304 28.0489 35.0729 28.0264C35.1577 27.9815 35.26 28.0722 35.3798 28.2984C35.4472 28.4257 35.5008 28.5783 35.5407 28.7563C35.5873 28.9127 35.6093 29.0911 35.6068 29.2916C35.596 29.7499 35.5614 30.2661 35.5032 30.84C35.4516 31.3923 35.3854 31.9342 35.3047 32.4657C35.2298 32.9399 35.1046 33.4044 34.9291 33.8594C34.7536 34.3144 34.5273 34.7419 34.2503 35.142ZM29.9284 31.6457C30.0216 31.6507 30.1143 31.6378 30.2067 31.6071C30.299 31.5763 30.3876 31.5384 30.4724 31.4935C30.7552 31.3438 31.0044 31.1305 31.2198 30.8535C31.4278 30.5624 31.5933 30.2937 31.7165 30.0475C31.9219 29.6491 32.0555 29.2344 32.117 28.8036C32.1786 28.3727 32.1187 27.9518 31.9374 27.5409C31.8617 27.3637 31.7445 27.2448 31.5856 27.184C31.4334 27.1017 31.2441 27.1204 31.0179 27.2402C30.9048 27.3 30.7746 27.3961 30.6273 27.5284C30.431 27.7047 30.2609 27.9305 30.117 28.2058C29.9731 28.4811 29.8512 28.781 29.7514 29.1054C29.7181 29.2135 29.6657 29.4223 29.5941 29.7317C29.5292 30.0195 29.4864 30.3319 29.4656 30.6688C29.4373 30.9915 29.4718 31.2448 29.5691 31.4286C29.6514 31.5842 29.7712 31.6565 29.9284 31.6457ZM43.6042 30.7336C43.1659 30.9657 42.772 30.9569 42.4227 30.7074C42.0875 30.4503 41.7889 30.0743 41.5269 29.5794C41.2873 29.1269 41.094 28.659 40.9468 28.1757C40.8844 27.9553 40.822 27.7348 40.7596 27.5144C40.7039 27.2723 40.6515 27.0195 40.6025 26.7558C40.5941 27.3214 40.5641 27.8804 40.5125 28.4327C40.4751 28.9775 40.4044 29.4766 40.3004 29.9299C40.1398 30.721 39.9023 31.4351 39.5878 32.0722C39.2875 32.7019 38.8899 33.1477 38.3949 33.4097C37.999 33.6193 37.5848 33.6575 37.1522 33.5244C36.7264 33.3697 36.3225 32.9317 35.9408 32.2105C35.5515 31.4752 35.2783 30.6513 35.1212 29.7388C34.964 28.8263 34.9358 27.918 35.0365 27.0138C35.1438 26.088 35.4 25.2554 35.8052 24.5159C36.2244 23.769 36.8088 23.1972 37.5583 22.8004C37.7987 22.6732 38.079 22.57 38.3992 22.491C38.7195 22.412 39.0522 22.4079 39.3974 22.4786C39.7351 22.5352 40.0362 22.7107 40.3007 23.0052C40.2999 22.9694 40.3028 22.9407 40.3094 22.9191C40.3302 22.89 40.344 22.8646 40.3506 22.843C40.3839 22.4271 40.4717 22.0457 40.6139 21.6989C40.7562 21.352 40.9829 21.0962 41.294 20.9316C41.4495 20.8492 41.6725 20.7403 41.9628 20.6047C42.2531 20.4691 42.4581 20.3606 42.5779 20.2791C42.5371 20.3731 42.498 20.5386 42.4606 20.7757C42.4373 21.0052 42.4248 21.2381 42.4231 21.4744C42.414 21.6965 42.4073 21.872 42.4031 22.0009C42.4106 22.9383 42.4496 23.85 42.5203 24.7359C42.5909 25.6217 42.7173 26.4419 42.8995 27.1963C42.9319 27.3602 42.9747 27.5095 43.0279 27.6443C43.0737 27.7649 43.1265 27.8818 43.1864 27.9949C43.381 28.3626 43.5985 28.4828 43.8389 28.3555C44.0652 28.2357 44.2731 27.9446 44.4628 27.4822C44.7482 26.8242 44.9175 26.101 44.9707 25.3124C45.0382 24.5164 45.0673 23.7678 45.0582 23.0666C45.0624 22.9376 45.0856 22.8619 45.1281 22.8395C45.2129 22.7946 45.319 22.8923 45.4462 23.1327C45.5061 23.2458 45.5523 23.3843 45.5847 23.5482C45.6313 23.7046 45.6529 23.8651 45.6495 24.0298C45.6312 24.474 45.5904 25.0296 45.5272 25.6967C45.4781 26.3564 45.3828 27.0314 45.2414 27.7217C45.0924 28.398 44.8849 29.0148 44.6187 29.5721C44.3666 30.1219 44.0285 30.5091 43.6042 30.7336ZM38.4063 31.1226C38.4562 31.1143 38.5236 31.0877 38.6084 31.0428C38.8771 30.9006 39.1071 30.634 39.2984 30.2431C39.4898 29.8521 39.6474 29.3975 39.7714 28.8793C39.8879 28.347 39.969 27.8334 40.0148 27.3384C40.113 26.0192 40.1796 25.0335 40.2145 24.3814C40.2495 23.7293 40.2695 23.3566 40.2745 23.2635C40.0765 23.0605 39.8557 22.9511 39.612 22.9353C39.3824 22.912 39.1474 22.964 38.907 23.0912C38.5959 23.2559 38.3085 23.5166 38.0448 23.8735C37.7953 24.2228 37.6139 24.5813 37.5008 24.949C37.3277 25.5113 37.225 26.1721 37.1925 26.9315C37.1742 27.6835 37.2086 28.3984 37.2959 29.0764C37.3974 29.7468 37.5492 30.2729 37.7513 30.6547C37.9384 31.0082 38.1567 31.1642 38.4063 31.1226ZM45.7568 29.4312C45.7626 29.0661 45.7485 28.6119 45.7144 28.0688C45.6662 27.5331 45.5993 26.962 45.5136 26.3556C45.4346 25.7276 45.3457 25.1321 45.2467 24.5689C45.0239 23.2929 44.8155 22.0273 44.6218 20.7721C44.4422 19.5095 44.3374 18.3882 44.3076 17.4083C44.2835 16.9866 44.2643 16.4717 44.2502 15.8637C44.2286 15.2415 44.2278 14.5902 44.2478 13.9098C44.282 13.2219 44.356 12.5581 44.47 11.9185C44.5907 11.2572 44.7812 10.6766 45.0416 10.1767C45.3161 9.66931 45.6796 9.29585 46.1321 9.05631C46.5846 8.81677 46.9411 8.75482 47.2014 8.87046C47.4759 8.9786 47.6917 9.18116 47.8489 9.47812C48.0211 9.80336 48.1338 10.1872 48.187 10.6298C48.2402 11.0723 48.2668 11.4474 48.2668 11.7552C48.2684 12.4423 48.2226 13.2449 48.1294 14.1632C48.0429 15.0599 47.9126 15.9254 47.7388 16.7597C47.6556 17.1839 47.5453 17.6767 47.408 18.2382C47.2633 18.7855 47.111 19.3187 46.9513 19.8377C46.8057 20.3493 46.6763 20.7889 46.5632 21.1565L46.7428 22.4192C46.856 21.7438 47.0165 21.1066 47.2245 20.5078C47.4325 19.9089 47.6758 19.2913 47.9545 18.655C48.1583 18.185 48.4137 17.7783 48.7207 17.4348C49.0418 17.0837 49.3649 16.8222 49.6902 16.65C49.9306 16.5227 50.1685 16.4421 50.4039 16.408C50.6534 16.3664 50.8688 16.3972 51.0502 16.5003C51.1733 16.5619 51.2789 16.6418 51.3671 16.7399C51.4552 16.8381 51.5293 16.9437 51.5892 17.0568C51.7089 17.2831 51.7825 17.5247 51.81 17.7818C51.8582 18.3174 51.7879 18.8344 51.599 19.3326C51.4168 19.8093 51.1477 20.2414 50.7917 20.629C50.6661 20.7679 50.4947 20.94 50.2776 21.1455C50.0605 21.3509 49.8604 21.5202 49.6774 21.6533C49.8105 21.8363 49.9365 22.023 50.0555 22.2135C50.1885 22.3965 50.3216 22.5795 50.4547 22.7625C50.7941 23.1984 51.1172 23.5523 51.4241 23.8244C51.7452 24.0889 52.0542 24.1426 52.3511 23.9854C52.6198 23.8431 52.8869 23.4755 53.1522 22.8824C53.3427 22.4557 53.4721 22.0161 53.5403 21.5636C53.6285 21.0463 53.6914 20.5152 53.7288 19.9703C53.7588 19.4114 53.7721 18.9065 53.7688 18.4556C53.773 18.3267 53.7963 18.251 53.8387 18.2285C53.9235 18.1836 54.0258 18.2743 54.1456 18.5006C54.213 18.6278 54.2666 18.7805 54.3065 18.9585C54.3531 19.1149 54.3714 19.2862 54.3614 19.4725C54.3431 19.9167 54.3044 20.4079 54.2453 20.9461C54.2004 21.4767 54.1375 22.0078 54.0568 22.5394C54.0136 22.8338 53.9391 23.1719 53.8334 23.5537C53.7278 23.9355 53.5968 24.3036 53.4404 24.6579C53.2973 24.969 53.0972 25.2922 52.8402 25.6274C52.5756 25.9484 52.2807 26.195 51.9555 26.3672C51.701 26.5019 51.4306 26.5726 51.1445 26.5793C50.8725 26.5784 50.5947 26.4811 50.311 26.2873C49.9983 26.0726 49.691 25.7827 49.389 25.4176C49.0871 25.0524 48.8276 24.6648 48.6105 24.2547C48.4908 24.0284 48.3818 23.8055 48.2837 23.5859C48.1922 23.3447 48.1261 23.1172 48.0853 22.9034C48.0288 22.6256 48.0134 22.4255 48.0392 22.3032C48.065 22.181 48.1344 22.0899 48.2476 22.03C48.6502 21.7988 49.0232 21.5289 49.3668 21.2203C49.7028 20.8976 49.9416 20.5449 50.083 20.1623C50.2586 19.7073 50.2527 19.3031 50.0656 18.9495C49.9833 18.794 49.8556 18.6896 49.6826 18.6363C49.5162 18.5615 49.3129 18.5877 49.0725 18.7149C48.7472 18.8871 48.4852 19.1616 48.2864 19.5384C48.0875 19.9151 47.9365 20.3481 47.8334 20.8372C47.7302 21.3263 47.6557 21.8183 47.61 22.3132C47.5567 22.794 47.5238 23.2278 47.5113 23.6146C47.4963 23.894 47.5009 24.2446 47.525 24.6664C47.5491 25.0881 47.5736 25.5277 47.5986 25.9852C47.6235 26.4427 47.6297 26.8648 47.6172 27.2516C47.6047 27.6384 47.5581 27.9437 47.4774 28.1674C47.3909 28.4486 47.2486 28.6415 47.0507 28.7463L45.7568 29.4312ZM46.3512 19.4222C46.6241 18.2278 46.8604 16.9984 47.0601 15.7341C47.2598 14.4697 47.3492 13.2366 47.3285 12.0346C47.3335 11.9415 47.3256 11.7556 47.3048 11.4769C47.284 11.1983 47.245 10.9021 47.1876 10.5885C47.1444 10.2675 47.0703 10.0079 46.9655 9.80996C46.8308 9.55543 46.6644 9.48056 46.4665 9.58535C46.2685 9.69015 46.1179 9.98709 46.0148 10.4762C45.9257 10.9578 45.8754 11.5638 45.8637 12.2941C45.8587 13.0028 45.8803 13.7788 45.9285 14.6223C45.9692 15.4516 46.0315 16.2876 46.1155 17.1302C46.192 17.9587 46.2705 18.7227 46.3512 19.4222ZM60.5989 21.1944C60.1281 21.8781 59.5321 22.4109 58.8109 22.7926C58.2028 23.1145 57.5586 23.2655 56.8782 23.2455C56.1978 23.2255 55.5935 22.9389 55.0653 22.3857C54.8233 22.1337 54.6162 21.845 54.444 21.5198C54.1595 20.9824 53.9595 20.3823 53.8439 19.7193C53.735 19.0347 53.7088 18.3697 53.7654 17.7242C53.8495 16.7202 54.1282 15.7762 54.6015 14.892C55.0749 14.0078 55.757 13.3299 56.6479 12.8583C57.3125 12.5065 57.9185 12.403 58.4658 12.5478C59.0131 12.6925 59.4065 12.9912 59.6461 13.4437C59.9305 13.981 59.9974 14.5521 59.8469 15.1568C59.7029 15.7399 59.3972 16.2909 58.9297 16.8099C58.6993 17.0586 58.4364 17.2973 58.1411 17.5261C57.8525 17.7332 57.5667 17.9116 57.2839 18.0613C56.7041 18.3682 56.2175 18.5262 55.8241 18.5353C55.9222 19.3705 56.1247 20.0779 56.4316 20.6577C56.7086 21.1809 57.0571 21.5486 57.4771 21.7607C57.8897 21.9587 58.3576 21.9192 58.8808 21.6423C59.3192 21.4102 59.6868 21.0617 59.9838 20.5967C60.2949 20.1243 60.5408 19.614 60.7213 19.0659C60.916 18.5102 61.0545 18.0024 61.1369 17.5424C61.2076 17.1972 61.2575 16.8812 61.2866 16.5942C61.3158 16.3072 61.337 15.9882 61.3503 15.6372C61.3561 15.272 61.3566 14.8283 61.3516 14.3059C61.3558 14.177 61.3791 14.1013 61.4215 14.0788C61.5063 14.0339 61.6087 14.1246 61.7284 14.3508C61.7958 14.4781 61.8494 14.6308 61.8894 14.8088C61.9359 14.9651 61.958 15.1436 61.9555 15.344C61.9446 15.8023 61.9101 16.3185 61.8518 16.8924C61.8002 17.4447 61.7341 17.9866 61.6534 18.5182C61.5785 18.9923 61.4533 19.4568 61.2777 19.9118C61.1022 20.3668 60.8759 20.7943 60.5989 21.1944ZM56.2771 17.6982C56.3702 17.7031 56.463 17.6903 56.5553 17.6595C56.6476 17.6287 56.7362 17.5909 56.8211 17.546C57.1039 17.3962 57.353 17.1829 57.5685 16.9059C57.7764 16.6148 57.942 16.3461 58.0651 16.0999C58.2706 15.7015 58.4041 15.2869 58.4657 14.856C58.5272 14.4251 58.4674 14.0042 58.2861 13.5933C58.2104 13.4161 58.0931 13.2972 57.9342 13.2365C57.782 13.1541 57.5928 13.1728 57.3665 13.2926C57.2534 13.3525 57.1232 13.4485 56.976 13.5808C56.7797 13.7571 56.6095 13.9829 56.4656 14.2583C56.3217 14.5336 56.1998 14.8334 56.1 15.1578C56.0667 15.266 56.0143 15.4747 55.9428 15.7842C55.8779 16.072 55.835 16.3843 55.8142 16.7212C55.7859 17.0439 55.8204 17.2972 55.9177 17.481C56.0001 17.6366 56.1198 17.709 56.2771 17.6982ZM66.9945 18.3792C66.542 18.6187 66.1157 18.6 65.7156 18.323C65.3804 18.066 65.0893 17.7041 64.8423 17.2375C64.5653 16.7142 64.3362 16.0933 64.1549 15.3746C63.9736 14.6559 63.8414 13.8931 63.7582 13.0863C63.7299 12.7935 63.6963 12.4221 63.6572 11.9721C63.6323 11.5146 63.6394 11.0492 63.6785 10.5759C63.5703 10.8504 63.4119 11.1153 63.2031 11.3707C62.9868 11.6119 62.7514 11.7999 62.4968 11.9346C62.2989 12.0394 62.1213 12.0972 61.9641 12.108C61.9707 12.3941 61.9815 12.8591 61.9964 13.5029C62.0114 14.1468 61.9901 14.9274 61.9327 15.8449C61.9277 15.938 61.8853 15.9605 61.8054 15.9122C61.7322 15.8424 61.6582 15.7367 61.5833 15.5953C61.5235 15.4822 61.474 15.3545 61.4349 15.2123C61.3958 15.07 61.3746 14.9274 61.3713 14.7843C61.3705 14.4408 61.3659 14.0902 61.3576 13.7325C61.3418 13.3607 61.3306 13.0317 61.324 12.7456C61.3173 12.4594 61.3061 12.2843 61.2903 12.2203C60.9684 12.2277 60.6839 12.152 60.4369 11.9931C60.1824 11.8201 59.9952 11.6205 59.8755 11.3942C59.7557 11.168 59.6966 10.9367 59.6983 10.7005C59.7141 10.4568 59.8019 10.2293 59.9616 10.018C60.0664 9.90822 60.1754 9.82338 60.2885 9.7635C60.5996 9.59881 60.9066 9.56306 61.2093 9.65624C61.2251 9.72029 61.2447 9.79141 61.268 9.8696C61.2979 9.92616 61.3316 9.9898 61.369 10.0605C61.6011 10.4989 61.95 10.7305 62.4158 10.7555C62.8816 10.7805 63.3046 10.6562 63.6847 10.3825C63.733 9.99491 63.8283 9.62767 63.9705 9.28082C64.1128 8.93397 64.3324 8.68194 64.6293 8.52475C64.7849 8.44241 65.0078 8.33345 65.2981 8.19788C65.6026 8.05483 65.8147 7.94255 65.9345 7.86104C65.8796 7.96251 65.8405 8.12804 65.8172 8.35761C65.7939 8.58719 65.7814 8.82009 65.7797 9.05633C65.778 9.29256 65.7751 9.47514 65.7709 9.60407C65.7784 10.5415 65.8141 11.464 65.8781 12.3715C65.9346 13.2648 66.0539 14.0887 66.2361 14.8432C66.2751 14.9854 66.3105 15.1206 66.3421 15.2487C66.3803 15.3552 66.4294 15.465 66.4893 15.5781C66.7139 16.0023 66.9676 16.1396 67.2504 15.9899C67.4484 15.8851 67.6563 15.594 67.8743 15.1165C68.0573 14.6757 68.19 14.2253 68.2724 13.7653C68.3606 13.2479 68.4196 12.7097 68.4496 12.1508C68.4796 11.5918 68.4929 11.0869 68.4896 10.6361C68.5004 10.4855 68.52 10.4027 68.5483 10.3878C68.6331 10.3428 68.7429 10.4477 68.8776 10.7022C68.93 10.8012 68.9795 10.9289 69.0261 11.0853C69.0727 11.2416 69.0943 11.4022 69.091 11.5669C69.066 12.0327 69.0314 12.5488 68.9873 13.1153C68.9357 13.6676 68.8733 14.2166 68.8001 14.7622C68.751 15.1141 68.6428 15.5424 68.4756 16.0473C68.3225 16.5447 68.1187 17.0147 67.8642 17.4572C67.6238 17.8922 67.3339 18.1996 66.9945 18.3792Z" fill="black"/>
<path d="M9.16392 52.196L71.2042 19.3551L71.7656 20.4157L9.72533 53.2565L9.16392 52.196Z" fill="black"/>
<path d="M41.6248 55.3792C41.3985 55.499 41.1802 55.4969 40.9698 55.373C40.7735 55.2415 40.5967 55.0273 40.4395 54.7304C40.2224 54.3203 40.0316 53.8058 39.8669 53.1869C39.7164 52.5606 39.5829 51.898 39.4665 51.1993C39.3642 50.4931 39.2769 49.8152 39.2046 49.1656C39.1248 48.5018 39.0616 47.9378 39.015 47.4737L37.8484 48.0912C37.7352 48.1511 37.6562 48.1386 37.6113 48.0538C37.5664 47.9689 37.5702 47.8221 37.6226 47.6133C37.6675 47.3904 37.7449 47.1775 37.8547 46.9745C37.9645 46.7716 38.0759 46.6402 38.1891 46.5803L38.9103 46.1985C38.8221 45.1771 38.7428 44.2234 38.6721 43.3375C38.594 42.4375 38.5711 41.4539 38.6036 40.3867C38.612 40.1288 38.6207 39.8889 38.6299 39.6668C38.6315 39.4306 38.6586 39.208 38.711 38.9993C37.9998 39.5025 37.2936 40.0664 36.5923 40.691C35.9052 41.3082 35.3329 41.937 34.8754 42.5775C34.4179 43.2179 34.1741 43.8177 34.1441 44.3766C34.1525 44.4265 34.1354 44.4627 34.093 44.4852C34.0647 44.5001 34.0285 44.4831 33.9844 44.434C33.9262 44.3924 33.8855 44.3325 33.8622 44.2543C33.809 43.8118 33.7986 43.3647 33.831 42.9131C33.8635 42.4614 33.9263 42.0842 34.0195 41.7814C34.1584 41.2915 34.4592 40.8336 34.9217 40.4077C35.3842 39.9819 35.887 39.598 36.4302 39.2562C36.9875 38.9069 37.4712 38.6236 37.8813 38.4066L42.0812 36.1834C42.5761 35.9214 43.007 35.6752 43.3738 35.4448C43.7473 35.1928 44.0684 34.9957 44.3371 34.8534C44.7755 34.6214 45.0861 34.5927 45.2691 34.7674C45.3132 34.8165 45.3502 34.8693 45.3802 34.9259C45.4168 34.9608 45.4538 35.0136 45.4912 35.0843C45.6409 35.3671 45.7494 35.7261 45.8168 36.1611C45.8767 36.582 45.9186 37.0033 45.9427 37.425C45.9735 37.8251 46.0026 38.1537 46.03 38.4107C46.0533 38.4889 46.0371 38.5609 45.9814 38.6266C45.9398 38.6848 45.8907 38.7289 45.8341 38.7588C45.7634 38.7962 45.6923 38.8158 45.6208 38.8175C45.5634 38.8116 45.5006 38.7272 45.4324 38.5642C45.3708 38.3795 45.3051 38.1699 45.2353 37.9353C45.1654 37.7007 45.0893 37.5057 45.007 37.3501C44.7674 36.8976 44.4002 36.6485 43.9053 36.6027C43.417 36.5353 42.9042 36.6438 42.3669 36.9283C41.9709 37.1379 41.6644 37.3454 41.4473 37.5508C41.2227 37.7421 41.0962 37.9991 41.0679 38.3219C40.9439 39.4556 40.8807 40.5844 40.8781 41.7081C40.8897 42.8244 40.9408 43.9469 41.0314 45.0757L46.5676 42.1451C46.61 42.1227 46.6267 42.2225 46.6175 42.4446C46.6225 42.6592 46.6029 42.8958 46.5588 43.1545C46.5214 43.3916 46.4532 43.5363 46.3542 43.5887L41.1149 46.3621C41.169 46.8404 41.2397 47.4185 41.327 48.0964C41.4143 48.7743 41.512 49.4377 41.6201 50.0865C41.7423 50.7278 41.8587 51.2726 41.9693 51.721C42.0642 52.1053 42.1827 52.4318 42.3249 52.7005C42.512 53.054 42.7603 53.2665 43.0697 53.3381C43.3933 53.4021 43.8308 53.2882 44.3823 52.9963C45.146 52.592 45.8946 52.1595 46.6283 51.6988C47.3545 51.2238 48.0291 50.6857 48.6521 50.0843C49.1911 49.5637 49.6258 49.0168 49.956 48.4437C50.3004 47.8631 50.4623 47.2796 50.4415 46.6932C50.4398 46.6216 50.4673 46.5709 50.5238 46.541C50.6228 46.4886 50.7135 46.5401 50.7958 46.6957C50.8108 46.724 50.8225 46.7631 50.8308 46.813C50.8532 46.8554 50.8724 46.9086 50.8882 46.9727C50.9696 47.4002 51.0075 47.7966 51.0016 48.1618C50.9958 48.5269 50.9604 48.8534 50.8955 49.1412C50.7541 49.8316 50.4022 50.398 49.8399 50.8405C49.2701 51.2689 48.6741 51.6477 48.0519 51.9771L41.6248 55.3792ZM63.9496 43.7246C63.4688 43.9791 63.0617 44.0136 62.7281 43.8281C62.4012 43.6209 62.1367 43.3265 61.9346 42.9447C61.7176 42.5346 61.5304 42.0272 61.3733 41.4224C61.2227 40.7961 61.093 40.1406 60.9841 39.456C60.8818 38.7498 60.802 38.0861 60.7446 37.4647C60.7255 37.2576 60.6918 37.0401 60.6436 36.8121C60.6095 36.5767 60.5513 36.3813 60.4689 36.2257C60.3192 35.9429 60.1171 35.8689 59.8626 36.0036C59.7636 36.056 59.6617 36.1371 59.5569 36.2469C59.4446 36.3425 59.3298 36.4848 59.2125 36.6736C58.9904 36.9722 58.8123 37.3199 58.6784 37.7166C58.537 38.0992 58.4434 38.3841 58.3976 38.5713C58.2271 39.5486 58.2137 40.5152 58.3576 41.4709C58.5155 42.4192 58.6669 43.3891 58.8116 44.3806C58.854 44.6659 58.9001 44.9583 58.95 45.2577C58.9999 45.5572 59.0531 45.8458 59.1097 46.1237L57.031 47.224C56.9121 46.418 56.7969 45.619 56.6855 44.8272C56.5807 44.0137 56.4797 43.2072 56.3824 42.4079C56.3358 41.9437 56.2826 41.5012 56.2228 41.0803C56.1554 40.6453 56.0889 40.246 56.0232 39.8825C55.9974 39.697 55.9608 39.5082 55.9134 39.316C55.866 39.1239 55.8049 38.9571 55.73 38.8157C55.5579 38.4905 55.3304 38.4027 55.0476 38.5524C54.9486 38.6048 54.8396 38.6896 54.7206 38.8069C54.6083 38.9026 54.4865 39.0485 54.355 39.2448C54.1329 39.5434 53.9549 39.8911 53.821 40.2879C53.6796 40.6705 53.593 40.9517 53.5614 41.1313C53.4973 41.4549 53.4553 41.803 53.4353 42.1756C53.4079 42.5341 53.4054 42.8885 53.4278 43.2387C53.4669 43.9965 53.5475 44.696 53.6697 45.3373C53.7986 45.957 53.8934 46.4952 53.9541 46.9519C53.9966 47.2372 54.0427 47.5296 54.0926 47.829C54.1425 48.1285 54.1957 48.4171 54.2523 48.6949L52.1947 49.7841C52.1947 49.7841 52.1507 49.5811 52.0625 49.1752C51.9744 48.7693 51.9074 48.3521 51.8617 47.9237L51.3766 43.6728C51.3591 43.5372 51.3254 43.3197 51.2755 43.0202C51.2323 42.6991 51.1778 42.3569 51.1121 41.9934C51.039 41.6157 50.9591 41.2597 50.8726 40.9253C50.7787 40.5768 50.6793 40.3035 50.5745 40.1056C50.5071 39.9783 50.448 39.9009 50.3973 39.8735C50.5246 39.8061 50.666 39.7313 50.8215 39.6489C50.9837 39.5449 51.1355 39.4555 51.277 39.3807C51.4749 39.2759 51.6625 39.1856 51.8397 39.11C52.031 39.0268 52.1699 38.9985 52.2564 39.0251C52.4719 39.0559 52.6395 39.1844 52.7592 39.4107C52.8565 39.5945 52.9185 39.7971 52.9451 40.0183C52.9642 40.2255 52.9896 40.3931 53.0212 40.5212C53.1218 40.2325 53.2475 39.9398 53.398 39.6428C53.5486 39.3459 53.779 38.9433 54.0893 38.4351C54.2898 38.1298 54.5547 37.8266 54.8842 37.5255C55.2136 37.2244 55.5338 36.9916 55.8449 36.8269C56.5944 36.4301 57.1338 36.5429 57.4632 37.1651C57.5979 37.4196 57.6998 37.8002 57.7688 38.3067C57.9086 37.8526 58.0779 37.4371 58.2767 37.0603C58.4822 36.6619 58.7055 36.2631 58.9468 35.8638C59.1472 35.5585 59.4122 35.2554 59.7416 34.9543C60.071 34.6532 60.3912 34.4203 60.7023 34.2556C61.4518 33.8589 61.995 33.9787 62.3318 34.615C62.4067 34.7564 62.4645 34.934 62.5052 35.1478C62.5601 35.3541 62.605 35.5928 62.6399 35.864C62.6749 36.1352 62.7194 36.5099 62.7734 36.9882C62.82 37.4523 62.8744 37.9485 62.9368 38.4767C63.0058 38.9833 63.0885 39.4645 63.185 39.9203C63.2881 40.3545 63.407 40.6989 63.5418 40.9534C63.6241 41.109 63.7202 41.2391 63.83 41.3439C63.9464 41.4271 64.0754 41.4313 64.2168 41.3564C64.3157 41.304 64.431 41.1797 64.5624 40.9834C64.7346 40.6931 64.8806 40.3533 65.0004 39.9641C65.1202 39.5748 65.1926 39.3011 65.2175 39.1431C65.3057 38.6257 65.3686 38.0946 65.406 37.5498C65.436 36.9908 65.4493 36.4859 65.446 36.0351C65.4568 35.8845 65.4764 35.8017 65.5047 35.7868C65.5895 35.7419 65.6956 35.8396 65.8228 36.08C65.8827 36.1931 65.9326 36.3387 65.9725 36.5167C66.0191 36.6731 66.0407 36.8336 66.0374 36.9983C66.0191 37.4425 65.9841 37.9407 65.9325 38.4931C65.8809 39.0454 65.8147 39.5873 65.734 40.1188C65.6783 40.4923 65.5739 40.9277 65.4208 41.4251C65.2677 41.9225 65.071 42.3888 64.8306 42.8238C64.5827 43.2447 64.289 43.5449 63.9496 43.7246ZM66.9647 48.7001C66.983 48.5637 66.9813 48.3383 66.9597 48.0239C66.9456 47.7236 66.9273 47.3983 66.9049 47.0482C66.8824 46.698 66.8612 46.4014 66.8413 46.1585C66.7673 45.4374 66.6575 44.5631 66.512 43.5359C66.374 42.5227 66.2206 41.4634 66.0518 40.3579C65.883 39.2525 65.7225 38.1969 65.5703 37.1913C65.4181 36.1856 65.3092 35.3471 65.2435 34.6759C65.1862 34.0545 65.1567 33.5542 65.155 33.1749C65.1459 32.7814 65.2491 32.4462 65.4645 32.1693C65.6866 31.8706 66.0946 31.5641 66.6885 31.2498L67.3249 30.9129C67.2018 31.1591 67.1123 31.6228 67.0566 32.3041C67.0075 32.9637 66.9875 33.6441 66.9966 34.3453C67.0282 34.1657 67.0565 33.9968 67.0814 33.8388C67.0989 33.6666 67.131 33.5048 67.1775 33.3534C67.3381 32.5624 67.5756 31.8483 67.8901 31.2111C68.2045 30.574 68.6022 30.1282 69.083 29.8737C69.4789 29.6641 69.8898 29.6366 70.3157 29.7914C70.7557 29.9386 71.1628 30.3658 71.5371 31.0728C71.8815 31.7233 72.1023 32.4482 72.1995 33.2476C72.3035 34.0253 72.3076 34.8197 72.2119 35.6307C72.1087 36.4276 71.9294 37.1833 71.674 37.8978C71.6274 38.0491 71.5667 38.208 71.4918 38.3744C71.4236 38.5191 71.3483 38.6676 71.266 38.8198C71.7409 38.6227 72.1302 38.2808 72.4339 37.7942C72.7517 37.3002 72.9971 36.772 73.1701 36.2097C73.3573 35.6399 73.4925 35.1429 73.5757 34.7187C73.6639 34.2013 73.7221 33.6274 73.7504 32.9969C73.7929 32.3589 73.8087 31.8074 73.7979 31.3424C73.8021 31.2135 73.8254 31.1378 73.8678 31.1154C73.981 31.0555 74.1049 31.1528 74.2396 31.4073C74.3594 31.6336 74.4122 31.9044 74.398 32.2196C74.3972 32.4916 74.3839 32.8426 74.3581 33.2727C74.3323 33.7027 74.3052 34.0791 74.2769 34.4018C74.1279 35.6936 73.7831 36.8718 73.2424 37.9365C72.7017 39.0012 71.8232 39.8554 70.6071 40.4992C70.5081 40.5516 70.4021 40.6077 70.2889 40.6676C70.19 40.72 70.0802 40.7691 69.9595 40.8148C69.6052 40.9662 69.2421 41.0497 68.8703 41.0655C68.506 41.0955 68.177 40.9528 67.8834 40.6375L68.6605 44.9783C68.7669 45.5556 68.8426 46.0405 68.8875 46.4331C68.9182 46.8332 68.8758 47.1635 68.7602 47.4238C68.6379 47.7058 68.3788 47.9516 67.9828 48.1612L66.9647 48.7001ZM69.0001 40.1822C69.2405 40.0549 69.4526 39.7887 69.6365 39.3837C69.8128 38.9644 69.9522 38.4924 70.0545 37.9675C70.1635 37.4211 70.2305 36.9149 70.2555 36.4491C70.2813 35.7113 70.2501 34.9856 70.162 34.2719C70.0739 33.5582 69.9287 33.0104 69.7266 32.6286C69.5021 32.2044 69.2201 32.0821 68.8807 32.2618C68.5837 32.4189 68.3334 32.7325 68.1295 33.2025C67.9798 33.5352 67.8434 33.9785 67.7202 34.5325C67.6112 35.079 67.5284 35.675 67.4718 36.3205C67.4219 36.9443 67.4289 37.5561 67.493 38.1558C67.5636 38.7339 67.7038 39.221 67.9134 39.6169C67.9508 39.6876 67.9882 39.7583 68.0257 39.829C68.0697 39.8781 68.1176 39.9342 68.1691 39.9975C68.412 40.2853 68.689 40.3468 69.0001 40.1822ZM75.0927 24.6286C74.6576 24.696 74.3466 24.5529 74.1594 24.1994C73.9873 23.8741 73.9386 23.4745 74.0135 23.0003C74.095 22.5046 74.2652 22.1249 74.5239 21.8612C74.5796 21.7955 74.6287 21.7514 74.6711 21.729C74.7277 21.699 74.7842 21.6691 74.8408 21.6391C75.0812 21.5119 75.3166 21.4778 75.547 21.5369C75.7774 21.5959 75.9413 21.7174 76.0386 21.9012C76.1733 22.1558 76.1513 22.439 75.9724 22.7509C75.7453 22.8349 75.5665 22.9929 75.4359 23.225C75.3053 23.4571 75.2108 23.7062 75.1526 23.9724C75.1085 24.231 75.0885 24.4498 75.0927 24.6286ZM76.9012 36.8687C76.7174 36.966 76.5182 37.0171 76.3036 37.0221C76.0965 37.0412 75.8764 36.9676 75.6436 36.8012C75.3083 36.5442 75.0172 36.1823 74.7702 35.7157C74.5007 35.2066 74.2791 34.5998 74.1053 33.8953C73.924 33.1766 73.7847 32.4176 73.6874 31.6182C73.6592 31.3254 73.6292 30.9611 73.5976 30.5252C73.5661 30.0893 73.5627 29.6385 73.5877 29.1727C73.6127 28.7069 73.6996 28.2897 73.8486 27.9213C74.0041 27.5312 74.2445 27.25 74.5698 27.0779C74.7253 26.9955 74.9482 26.8866 75.2386 26.751C75.5289 26.6154 75.7339 26.5069 75.8537 26.4254C75.7988 26.5268 75.7597 26.6924 75.7364 26.9219C75.7131 27.1515 75.7006 27.3844 75.6989 27.6207C75.6898 27.8428 75.6831 28.0183 75.6789 28.1472C75.7005 29.0771 75.7396 29.9888 75.7961 30.8822C75.8526 31.7755 75.9719 32.5994 76.154 33.3539C76.1856 33.482 76.2243 33.6063 76.2701 33.7269C76.3158 33.8475 76.3649 33.9573 76.4173 34.0563C76.6343 34.4664 76.8772 34.6004 77.1459 34.4581C77.259 34.3982 77.3643 34.3063 77.4616 34.1824C77.5656 34.0368 77.672 33.8447 77.781 33.606C77.9715 33.1793 78.1009 32.7397 78.1691 32.2872C78.2573 31.7698 78.3201 31.2387 78.3576 30.6939C78.3876 30.1349 78.4009 29.63 78.3976 29.1792C78.4084 29.0286 78.428 28.9459 78.4563 28.9309C78.5411 28.886 78.6472 28.9837 78.7744 29.2241C78.8343 29.3372 78.8842 29.4828 78.9241 29.6608C78.9707 29.8172 78.9923 29.9777 78.989 30.1424C78.9706 30.5866 78.9357 31.0849 78.8841 31.6372C78.8325 32.1895 78.7663 32.7314 78.6856 33.2629C78.6299 33.6364 78.5255 34.0718 78.3724 34.5692C78.2193 35.0666 78.0226 35.5329 77.7822 35.9679C77.5343 36.3888 77.2406 36.689 76.9012 36.8687ZM84.014 33.1307C83.5615 33.3702 83.1352 33.3515 82.7351 33.0745C82.3999 32.8175 82.1088 32.4556 81.8618 31.989C81.5848 31.4657 81.3557 30.8448 81.1744 30.1261C80.9931 29.4074 80.8609 28.6447 80.7777 27.8378C80.7495 27.545 80.7158 27.1736 80.6767 26.7236C80.6518 26.2661 80.6589 25.8007 80.698 25.3274C80.5899 25.6019 80.4314 25.8668 80.2226 26.1222C80.0063 26.3634 79.7709 26.5514 79.5164 26.6861C79.3184 26.7909 79.1408 26.8487 78.9836 26.8595C78.9902 27.1457 79.001 27.6106 79.016 28.2544C79.0309 28.8983 79.0096 29.6789 78.9522 30.5964C78.9472 30.6895 78.9048 30.712 78.8249 30.6637C78.7517 30.5939 78.6777 30.4882 78.6029 30.3468C78.543 30.2337 78.4935 30.106 78.4544 29.9638C78.4153 29.8215 78.3941 29.6789 78.3908 29.5358C78.39 29.1923 78.3854 28.8417 78.3771 28.484C78.3613 28.1122 78.3501 27.7832 78.3435 27.4971C78.3368 27.2109 78.3256 27.0358 78.3098 26.9718C77.9879 26.9792 77.7034 26.9035 77.4564 26.7446C77.2019 26.5716 77.0147 26.372 76.895 26.1457C76.7752 25.9195 76.7162 25.6882 76.7178 25.452C76.7336 25.2083 76.8214 24.9808 76.9811 24.7695C77.0859 24.6597 77.1949 24.5749 77.308 24.515C77.6191 24.3503 77.9261 24.3146 78.2288 24.4077C78.2446 24.4718 78.2642 24.5429 78.2875 24.6211C78.3174 24.6777 78.3511 24.7413 78.3885 24.812C78.6206 25.2504 78.9695 25.4821 79.4353 25.507C79.9011 25.532 80.3241 25.4077 80.7042 25.134C80.7525 24.7464 80.8478 24.3792 80.99 24.0323C81.1323 23.6855 81.3519 23.4334 81.6489 23.2763C81.8044 23.1939 82.0273 23.085 82.3176 22.9494C82.6221 22.8063 82.8342 22.6941 82.954 22.6125C82.8991 22.714 82.86 22.8795 82.8367 23.1091C82.8134 23.3387 82.8009 23.5716 82.7992 23.8078C82.7975 24.0441 82.7946 24.2266 82.7904 24.3556C82.7979 25.293 82.8336 26.2155 82.8976 27.123C82.9541 28.0163 83.0734 28.8402 83.2556 29.5947C83.2947 29.7369 83.33 29.8721 83.3616 30.0002C83.3999 30.1067 83.4489 30.2165 83.5088 30.3296C83.7334 30.7538 83.9871 30.8911 84.2699 30.7414C84.4679 30.6366 84.6758 30.3455 84.8938 29.868C85.0768 29.4272 85.2095 28.9768 85.2919 28.5168C85.3801 27.9994 85.4392 27.4612 85.4691 26.9023C85.4991 26.3433 85.5124 25.8384 85.5091 25.3876C85.52 25.237 85.5395 25.1542 85.5678 25.1393C85.6526 25.0944 85.7624 25.1992 85.8972 25.4537C85.9496 25.5527 85.999 25.6804 86.0456 25.8368C86.0922 25.9931 86.1138 26.1537 86.1105 26.3184C86.0855 26.7842 86.051 27.3003 86.0068 27.8668C85.9552 28.4191 85.8928 28.9681 85.8196 29.5137C85.7705 29.8656 85.6623 30.2939 85.4951 30.7988C85.3421 31.2962 85.1382 31.7662 84.8837 32.2087C84.6433 32.6437 84.3534 32.9511 84.014 33.1307ZM92.3256 28.1607C91.8548 28.8444 91.2588 29.3772 90.5376 29.7589C89.9295 30.0808 89.2853 30.2318 88.6049 30.2118C87.9244 30.1918 87.3202 29.9052 86.792 29.352C86.5499 29.1 86.3428 28.8113 86.1707 28.4861C85.8862 27.9487 85.6862 27.3486 85.5706 26.6856C85.4617 26.001 85.4355 25.336 85.4921 24.6905C85.5762 23.6866 85.8549 22.7425 86.3282 21.8583C86.8016 20.9741 87.4837 20.2962 88.3745 19.8246C89.0392 19.4728 89.6451 19.3693 90.1925 19.5141C90.7398 19.6588 91.1332 19.9575 91.3727 20.41C91.6572 20.9473 91.7241 21.5184 91.5735 22.1231C91.4296 22.7062 91.1239 23.2572 90.6564 23.7762C90.426 24.0249 90.1631 24.2636 89.8678 24.4924C89.5792 24.6995 89.2934 24.8779 89.0106 25.0276C88.4308 25.3345 87.9442 25.4925 87.5508 25.5016C87.6489 26.3368 87.8514 27.0442 88.1583 27.624C88.4353 28.1472 88.7838 28.5149 89.2038 28.727C89.6164 28.925 90.0843 28.8855 90.6075 28.6086C91.0459 28.3765 91.4135 28.028 91.7105 27.563C92.0216 27.0906 92.2675 26.5803 92.448 26.0322C92.6426 25.4765 92.7812 24.9687 92.8635 24.5087C92.9343 24.1635 92.9842 23.8475 93.0133 23.5605C93.0424 23.2735 93.0637 22.9545 93.077 22.6035C93.0828 22.2383 93.0833 21.7946 93.0783 21.2722C93.0825 21.1433 93.1058 21.0676 93.1482 21.0451C93.233 21.0002 93.3353 21.0909 93.4551 21.3171C93.5225 21.4444 93.5761 21.5971 93.616 21.7751C93.6626 21.9314 93.6846 22.1099 93.6821 22.3103C93.6713 22.7687 93.6368 23.2848 93.5785 23.8587C93.5269 24.411 93.4608 24.9529 93.38 25.4845C93.3052 25.9586 93.1799 26.4231 93.0044 26.8781C92.8289 27.3331 92.6026 27.7606 92.3256 28.1607ZM88.0037 24.6645C88.0969 24.6694 88.1896 24.6566 88.282 24.6258C88.3743 24.595 88.4629 24.5572 88.5477 24.5123C88.8306 24.3626 89.0797 24.1492 89.2951 23.8722C89.5031 23.5811 89.6687 23.3124 89.7918 23.0662C89.9972 22.6678 90.1308 22.2532 90.1923 21.8223C90.2539 21.3914 90.1941 20.9705 90.0127 20.5596C89.9371 20.3824 89.8198 20.2635 89.6609 20.2028C89.5087 20.1204 89.3195 20.1391 89.0932 20.2589C88.9801 20.3188 88.8499 20.4148 88.7027 20.5471C88.5063 20.7234 88.3362 20.9492 88.1923 21.2246C88.0484 21.4999 87.9265 21.7997 87.8267 22.1241C87.7934 22.2323 87.741 22.441 87.6695 22.7505C87.6046 23.0383 87.5617 23.3506 87.5409 23.6875C87.5126 24.0102 87.5471 24.2635 87.6444 24.4473C87.7268 24.6029 87.8465 24.6753 88.0037 24.6645Z" fill="black"/>
<path d="M41.9678 58.5921L95.8166 30.0874L96.378 31.1479L42.5292 59.6526L41.9678 58.5921Z" fill="black"/>
</svg>
